<svg width="40" height="40" viewBox="0 0 40 40" fill="none" xmlns="http://www.w3.org/2000/svg">
  <defs>
    <linearGradient id="logoGradient" x1="0%" y1="0%" x2="100%" y2="100%">
      <stop offset="0%" style="stop-color:#2563eb;stop-opacity:1" />
      <stop offset="100%" style="stop-color:#06b6d4;stop-opacity:1" />
    </linearGradient>
  </defs>
  
  <!-- Outer cube -->
  <rect x="2" y="2" width="36" height="36" rx="8" fill="url(#logoGradient)" opacity="0.1"/>
  
  <!-- Main cube structure -->
  <path d="M8 12 L20 8 L32 12 L32 28 L20 32 L8 28 Z" fill="url(#logoGradient)" opacity="0.8"/>
  
  <!-- Inner geometric pattern -->
  <path d="M12 16 L20 14 L28 16 L28 24 L20 26 L12 24 Z" fill="white" opacity="0.9"/>
  
  <!-- Central AI symbol -->
  <circle cx="20" cy="20" r="3" fill="url(#logoGradient)"/>
  <circle cx="16" cy="18" r="1.5" fill="url(#logoGradient)" opacity="0.7"/>
  <circle cx="24" cy="18" r="1.5" fill="url(#logoGradient)" opacity="0.7"/>
  <circle cx="16" cy="22" r="1.5" fill="url(#logoGradient)" opacity="0.7"/>
  <circle cx="24" cy="22" r="1.5" fill="url(#logoGradient)" opacity="0.7"/>
  
  <!-- Connection lines -->
  <line x1="16" y1="18" x2="20" y2="20" stroke="url(#logoGradient)" stroke-width="1" opacity="0.6"/>
  <line x1="24" y1="18" x2="20" y2="20" stroke="url(#logoGradient)" stroke-width="1" opacity="0.6"/>
  <line x1="16" y1="22" x2="20" y2="20" stroke="url(#logoGradient)" stroke-width="1" opacity="0.6"/>
  <line x1="24" y1="22" x2="20" y2="20" stroke="url(#logoGradient)" stroke-width="1" opacity="0.6"/>
</svg>